<svg width="24" height="24" viewBox="0 0 24 24" fill="none" xmlns="http://www.w3.org/2000/svg">
<path d="M12.0013 15.0013C11.7676 15.0017 11.5412 14.9203 11.3613 14.7713L5.36125 9.77125C5.15704 9.60151 5.02861 9.3576 5.00423 9.09318C4.97985 8.82875 5.06151 8.56547 5.23125 8.36125C5.40099 8.15704 5.6449 8.02861 5.90933 8.00423C6.17375 7.97985 6.43704 8.06151 6.64125 8.23125L12.0013 12.7113L17.3613 8.39125C17.4635 8.30819 17.5812 8.24615 17.7076 8.20872C17.8339 8.17129 17.9664 8.1592 18.0974 8.17314C18.2285 8.18708 18.3554 8.22677 18.4711 8.28995C18.5867 8.35312 18.6887 8.43853 18.7713 8.54125C18.8628 8.64407 18.9322 8.7647 18.975 8.89557C19.0178 9.02645 19.0331 9.16475 19.0199 9.30181C19.0068 9.43887 18.9655 9.57175 18.8986 9.6921C18.8317 9.81246 18.7407 9.91771 18.6313 10.0013L12.6313 14.8313C12.4462 14.9568 12.2244 15.0166 12.0013 15.0013V15.0013Z" fill="#909090"/>
</svg>
