<svg width="88" height="88" viewBox="0 0 88 88" fill="none" xmlns="http://www.w3.org/2000/svg">
<path d="M80.1167 64.0567L61.7833 34.7234C61.4545 34.1928 60.9956 33.7549 60.4502 33.4513C59.9048 33.1477 59.2909 32.9883 58.6667 32.9883C58.0424 32.9883 57.4285 33.1477 56.8831 33.4513C56.3377 33.7549 55.8788 34.1928 55.55 34.7234L51.8833 40.7001L39.82 20.1667C39.4953 19.6196 39.0339 19.1663 38.481 18.8515C37.9281 18.5367 37.3029 18.3712 36.6667 18.3712C36.0304 18.3712 35.4052 18.5367 34.8523 18.8515C34.2994 19.1663 33.838 19.6196 33.5133 20.1667L7.84666 64.1667C7.52576 64.7225 7.35636 65.3528 7.35538 65.9946C7.35441 66.6363 7.52189 67.2671 7.8411 67.8239C8.16031 68.3806 8.62005 68.8439 9.17439 69.1673C9.72872 69.4907 10.3582 69.6629 11 69.6667H77C77.6551 69.6681 78.2987 69.4938 78.8636 69.1621C79.4286 68.8305 79.8944 68.3535 80.2126 67.7808C80.5307 67.2081 80.6897 66.5606 80.6728 65.9057C80.6559 65.2507 80.4639 64.6123 80.1167 64.0567ZM38.3167 62.3334H17.38L36.6667 29.3334L47.41 47.6667L38.3167 62.3334ZM46.9333 62.3334L55 49.7567L58.6667 43.5967L70.4 62.3334H46.9333Z" fill="white"/>
</svg>
