<svg width="88" height="88" viewBox="0 0 88 88" fill="none" xmlns="http://www.w3.org/2000/svg">
<path d="M31.1667 62.3334H21.6847L22.759 61.259C23.4269 60.5675 23.7965 59.6413 23.7881 58.6799C23.7798 57.7185 23.3942 56.7988 22.7143 56.119C22.0345 55.4392 21.1148 55.0536 20.1535 55.0452C19.1921 55.0369 18.2659 55.4064 17.5743 56.0744L10.241 63.4077C9.55717 64.0972 9.17347 65.0289 9.17347 66C9.17347 66.9711 9.55717 67.9029 10.241 68.5924L17.5743 75.9257C18.2659 76.5936 19.1921 76.9632 20.1535 76.9548C21.1148 76.9465 22.0345 76.5609 22.7143 75.881C23.3942 75.2012 23.7798 74.2815 23.7881 73.3202C23.7965 72.3588 23.4269 71.4326 22.759 70.741L21.6847 69.6667H31.1667C32.1391 69.6667 33.0717 69.2804 33.7594 68.5927C34.447 67.9051 34.8333 66.9725 34.8333 66C34.8333 65.0276 34.447 64.0949 33.7594 63.4073C33.0717 62.7197 32.1391 62.3334 31.1667 62.3334ZM77.759 63.4077L70.4257 56.0744C69.7341 55.4064 68.8079 55.0369 67.8465 55.0452C66.8851 55.0536 65.9655 55.4392 65.2856 56.119C64.6058 56.7988 64.2202 57.7185 64.2118 58.6799C64.2035 59.6413 64.5731 60.5675 65.241 61.259L66.3153 62.3334H56.8333C55.8609 62.3334 54.9282 62.7197 54.2406 63.4073C53.553 64.0949 53.1667 65.0276 53.1667 66C53.1667 66.9725 53.553 67.9051 54.2406 68.5927C54.9282 69.2804 55.8609 69.6667 56.8333 69.6667H66.3153L65.241 70.741C64.8908 71.0793 64.6114 71.4839 64.4193 71.9312C64.2271 72.3786 64.126 72.8597 64.1217 73.3466C64.1175 73.8334 64.2103 74.3162 64.3946 74.7668C64.579 75.2175 64.8513 75.6269 65.1955 75.9711C65.5398 76.3154 65.9492 76.5877 66.3998 76.772C66.8504 76.9564 67.3333 77.0492 67.8201 77.0449C68.307 77.0407 68.7881 76.9396 69.2355 76.7474C69.6828 76.5552 70.0874 76.2759 70.4257 75.9257L77.759 68.5924C78.4428 67.9029 78.8265 66.9711 78.8265 66C78.8265 65.0289 78.4428 64.0972 77.759 63.4077V63.4077ZM75.68 35.8307C77.7011 33.5248 78.821 30.5663 78.8333 27.5C78.8333 24.0964 77.4812 20.8322 75.0745 18.4255C72.6678 16.0188 69.4036 14.6667 66 14.6667C62.5964 14.6667 59.3322 16.0188 56.9254 18.4255C54.5187 20.8322 53.1667 24.0964 53.1667 27.5C53.179 30.5663 54.2988 33.5248 56.32 35.8307C53.6798 37.4672 51.5 39.7493 49.986 42.4616C48.4721 45.1739 47.6738 48.2271 47.6667 51.3334C47.6667 52.3058 48.053 53.2384 48.7406 53.9261C49.4282 54.6137 50.3609 55 51.3333 55C52.3058 55 53.2384 54.6137 53.926 53.9261C54.6137 53.2384 55 52.3058 55 51.3334C55 48.416 56.1589 45.6181 58.2218 43.5552C60.2847 41.4923 63.0826 40.3334 66 40.3334C68.9174 40.3334 71.7153 41.4923 73.7782 43.5552C75.8411 45.6181 77 48.416 77 51.3334C77 52.3058 77.3863 53.2384 78.0739 53.9261C78.7616 54.6137 79.6942 55 80.6666 55C81.6391 55 82.5717 54.6137 83.2594 53.9261C83.947 53.2384 84.3333 52.3058 84.3333 51.3334C84.3261 48.2271 83.5279 45.1739 82.0139 42.4616C80.5 39.7493 78.3201 37.4672 75.68 35.8307V35.8307ZM66 33C64.9122 33 63.8488 32.6775 62.9443 32.0731C62.0399 31.4688 61.3349 30.6098 60.9186 29.6048C60.5024 28.5998 60.3934 27.4939 60.6057 26.427C60.8179 25.3601 61.3417 24.3801 62.1109 23.6109C62.8801 22.8417 63.8601 22.3179 64.927 22.1057C65.9939 21.8935 67.0997 22.0024 68.1047 22.4187C69.1097 22.835 69.9687 23.5399 70.5731 24.4444C71.1774 25.3489 71.5 26.4122 71.5 27.5C71.498 28.9581 70.918 30.3559 69.8869 31.387C68.8559 32.418 67.4581 32.9981 66 33V33ZM31.68 35.8307C33.7011 33.5248 34.821 30.5663 34.8333 27.5C34.8333 24.0964 33.4812 20.8322 31.0745 18.4255C28.6678 16.0188 25.4036 14.6667 22 14.6667C18.5964 14.6667 15.3322 16.0188 12.9255 18.4255C10.5187 20.8322 9.16666 24.0964 9.16666 27.5C9.17898 30.5663 10.2988 33.5248 12.32 35.8307C9.67984 37.4672 7.5 39.7493 5.98604 42.4616C4.47207 45.1739 3.67385 48.2271 3.66666 51.3334C3.66666 52.3058 4.05296 53.2384 4.7406 53.9261C5.42823 54.6137 6.36086 55 7.33332 55C8.30578 55 9.23841 54.6137 9.92605 53.9261C10.6137 53.2384 11 52.3058 11 51.3334C11 48.416 12.1589 45.6181 14.2218 43.5552C16.2847 41.4923 19.0826 40.3334 22 40.3334C24.9174 40.3334 27.7153 41.4923 29.7782 43.5552C31.8411 45.6181 33 48.416 33 51.3334C33 52.3058 33.3863 53.2384 34.0739 53.9261C34.7616 54.6137 35.6942 55 36.6667 55C37.6391 55 38.5717 54.6137 39.2594 53.9261C39.947 53.2384 40.3333 52.3058 40.3333 51.3334C40.3261 48.2271 39.5279 45.1739 38.0139 42.4616C36.5 39.7493 34.3201 37.4672 31.68 35.8307V35.8307ZM22 33C20.9122 33 19.8488 32.6775 18.9444 32.0731C18.0399 31.4688 17.3349 30.6098 16.9187 29.6048C16.5024 28.5998 16.3935 27.4939 16.6057 26.427C16.8179 25.3601 17.3417 24.3801 18.1109 23.6109C18.8801 22.8417 19.8601 22.3179 20.927 22.1057C21.9939 21.8935 23.0998 22.0024 24.1047 22.4187C25.1097 22.835 25.9687 23.5399 26.5731 24.4444C27.1774 25.3489 27.5 26.4122 27.5 27.5C27.498 28.9581 26.918 30.3559 25.8869 31.387C24.8559 32.418 23.4581 32.9981 22 33V33Z" fill="white"/>
</svg>
