<svg width="45" height="43" viewBox="0 0 45 43" fill="none" xmlns="http://www.w3.org/2000/svg">
<rect x="1" width="43" height="43" rx="21.5" fill="white"/>
<path d="M29.4066 0H15.5934C2.98819 0 0 2.85538 0 14.9004V28.0996C0 40.1446 2.98819 43 15.5934 43H29.4066C42.0118 43 45 40.1446 45 28.0996V14.9004C45 2.85538 41.9823 0 29.4066 0ZM36.3279 30.6742H33.0613C31.8239 30.6742 31.4428 29.7363 29.2167 27.5809C27.2832 25.7898 26.4268 25.552 25.9501 25.552C25.2766 25.552 25.0853 25.7334 25.0853 26.6162V29.4366C25.0853 30.1931 24.8364 30.6473 22.7412 30.6473C19.2763 30.6473 15.4317 28.6452 12.736 24.915C8.67067 19.4488 7.55836 15.3546 7.55836 14.508C7.55836 14.0525 7.7482 13.6265 8.66364 13.6265H11.9373C12.7655 13.6265 13.0805 13.9907 13.4026 14.8372C15.0211 19.3024 17.7168 23.2139 18.8291 23.2139C19.2397 23.2139 19.4296 23.0325 19.4296 22.0314V17.4198C19.3044 15.2927 18.133 15.11 18.133 14.3548C18.133 13.9907 18.448 13.6265 18.9528 13.6265H24.101C24.797 13.6265 25.053 13.9907 25.053 14.7741V20.9954C25.053 21.6673 25.368 21.9051 25.5578 21.9051C25.9684 21.9051 26.32 21.6673 27.0807 20.939C29.4319 18.4196 31.1165 14.5349 31.1165 14.5349C31.3359 14.0794 31.717 13.6534 32.5452 13.6534H35.8189C36.8004 13.6534 37.0198 14.1358 36.8004 14.8077C36.3898 16.627 32.3835 22.0301 32.3835 22.0301C32.039 22.5756 31.9068 22.8135 32.3835 23.4222C32.7351 23.8777 33.8783 24.8223 34.6391 25.6689C36.0382 27.1872 37.114 28.4611 37.4009 29.3426C37.7229 30.2173 37.2476 30.6728 36.3237 30.6728L36.3279 30.6742Z" fill="#2787F5"/>
</svg>
